<mxfile host="app.diagrams.net" modified="2024-07-24T18:01:13.267Z" agent="Mozilla/5.0 (Windows NT 10.0; Win64; x64) AppleWebKit/537.36 (KHTML, like Gecko) Chrome/126.0.0.0 Safari/537.36" version="24.6.5" etag="0SnOnrVlV0wxpHj7ppzL" type="github">
  <diagram name="Page-1" id="ETpUE22RNVg7NwTT68VO">
    <mxGraphModel>
      <root>
        <mxCell id="0" />
        <mxCell id="1" parent="0" />
      </root>
    </mxGraphModel>
  </diagram>
</mxfile>
